+ filenameToUse=/home/horvathandras/vatic/vatic/public/videouploads/DJI_0048_5m_to_30m_nagyon_jo_homokmegy_20180603_napos_napraforgo_T3.avi
+ filenameNoDot=DJI_0048_5m_to_30m_nagyon_jo_homokmegy_20180603_napos_napraforgo_T3
+ FullUploadPath=/home/horvathandras/vatic/vatic/public/videouploads/DJI_0048_5m_to_30m_nagyon_jo_homokmegy_20180603_napos_napraforgo_T3.avi
+ VideoDataDir=/home/horvathandras/vatic/vatic/videos
+ AvailableObjectTypes='PozitívROI NegatívROI Túrás ~Friss ~1-2Hetes ~Régebbi ~Egyéb1 ~Egyéb2 ~Egyéb3 Rágás ~Friss ~1-2Hetes ~Régebbi ~Egyéb1 ~Egyéb2 ~Egyéb3 Törés ~Friss ~1-2Hetes ~Régebbi ~Egyéb1 ~Egyéb2 ~Egyéb3 Taposás ~Friss ~1-2Hetes ~Régebbi ~Egyéb1 ~Egyéb2 ~Egyéb3 EgészségesNövény Egyéb1 Egyéb2 Egyéb3 Egyéb4 Egyéb5 Bizonytalan Művelőút Gktaposás Vetőhiba Széldöntés Jégkár Belvíz Aszály Erózió EgyszikűGyom KétszikűGyom EgyébNövvédelmiPR'
++ dirname /home/horvathandras/vatic/vatic/vatic_publisher.sh
+ cd /home/horvathandras/vatic/vatic
+ touch /home/horvathandras/vatic/vatic/public/videouploads/DJI_0048_5m_to_30m_nagyon_jo_homokmegy_20180603_napos_napraforgo_T3.avi
+ chmod 744 /home/horvathandras/vatic/vatic/public/videouploads/DJI_0048_5m_to_30m_nagyon_jo_homokmegy_20180603_napos_napraforgo_T3.avi
+ mkdir /home/horvathandras/vatic/vatic/videos/DJI_0048_5m_to_30m_nagyon_jo_homokmegy_20180603_napos_napraforgo_T3
+ turkic extract /home/horvathandras/vatic/vatic/public/videouploads/DJI_0048_5m_to_30m_nagyon_jo_homokmegy_20180603_napos_napraforgo_T3.avi /home/horvathandras/vatic/vatic/videos/DJI_0048_5m_to_30m_nagyon_jo_homokmegy_20180603_napos_napraforgo_T3 --no-resize
ffmpeg version 2.8.14-0ubuntu0.16.04.1 Copyright (c) 2000-2018 the FFmpeg developers
  built with gcc 5.4.0 (Ubuntu 5.4.0-6ubuntu1~16.04.9) 20160609
  configuration: --prefix=/usr --extra-version=0ubuntu0.16.04.1 --build-suffix=-ffmpeg --toolchain=hardened --libdir=/usr/lib/x86_64-linux-gnu --incdir=/usr/include/x86_64-linux-gnu --cc=cc --cxx=g++ --enable-gpl --enable-shared --disable-stripping --disable-decoder=libopenjpeg --disable-decoder=libschroedinger --enable-avresample --enable-avisynth --enable-gnutls --enable-ladspa --enable-libass --enable-libbluray --enable-libbs2b --enable-libcaca --enable-libcdio --enable-libflite --enable-libfontconfig --enable-libfreetype --enable-libfribidi --enable-libgme --enable-libgsm --enable-libmodplug --enable-libmp3lame --enable-libopenjpeg --enable-libopus --enable-libpulse --enable-librtmp --enable-libschroedinger --enable-libshine --enable-libsnappy --enable-libsoxr --enable-libspeex --enable-libssh --enable-libtheora --enable-libtwolame --enable-libvorbis --enable-libvpx --enable-libwavpack --enable-libwebp --enable-libx265 --enable-libxvid --enable-libzvbi --enable-openal --enable-opengl --enable-x11grab --enable-libdc1394 --enable-libiec61883 --enable-libzmq --enable-frei0r --enable-libx264 --enable-libopencv
  libavutil      54. 31.100 / 54. 31.100
  libavcodec     56. 60.100 / 56. 60.100
  libavformat    56. 40.101 / 56. 40.101
  libavdevice    56.  4.100 / 56.  4.100
  libavfilter     5. 40.101 /  5. 40.101
  libavresample   2.  1.  0 /  2.  1.  0
  libswscale      3.  1.101 /  3.  1.101
  libswresample   1.  2.101 /  1.  2.101
  libpostproc    53.  3.100 / 53.  3.100
Input #0, mov,mp4,m4a,3gp,3g2,mj2, from '/home/horvathandras/vatic/vatic/public/videouploads/DJI_0048_5m_to_30m_nagyon_jo_homokmegy_20180603_napos_napraforgo_T3.avi':
  Metadata:
    major_brand     : qt  
    minor_version   : 537986816
    compatible_brands: qt  
    creation_time   : 2018-06-03 08:36:29
    location        : +46.518838+19.146306+5.100
    location-{    : +46.518838+19.146306+5.100
    comment         : DE=None, Mode=P, DSW=0001
  Duration: 00:00:26.94, start: 0.000000, bitrate: 100558 kb/s
    Stream #0:0(eng): Video: h264 (High) (avc1 / 0x31637661), yuv420p(tv, bt709), 4096x2160 [SAR 1:1 DAR 256:135], 100411 kb/s, 50 fps, 50 tbr, 50k tbn, 100 tbc (default)
    Metadata:
      creation_time   : 2018-06-03 08:36:29
      handler_name    : DJI.AVC
      encoder         : AVC encoder
    Stream #0:1(eng): Data: none (priv / 0x76697270), 137 kb/s
    Metadata:
      creation_time   : 2018-06-03 08:36:29
      handler_name    : DJI.Meta
Please use -b:a or -b:v, -b is ambiguous
[swscaler @ 0xcbe300] deprecated pixel format used, make sure you did set range correctly
Output #0, image2, to '/tmp/pyvision-ffmpeg-46667604/%d.jpg':
  Metadata:
    major_brand     : qt  
    minor_version   : 537986816
    compatible_brands: qt  
    comment         : DE=None, Mode=P, DSW=0001
    location        : +46.518838+19.146306+5.100
    location-{    : +46.518838+19.146306+5.100
    encoder         : Lavf56.40.101
    Stream #0:0(eng): Video: mjpeg, yuvj420p(pc), 4096x2160 [SAR 1:1 DAR 256:135], q=2-31, 10000 kb/s, 50 fps, 50 tbn, 50 tbc (default)
    Metadata:
      creation_time   : 2018-06-03 08:36:29
      handler_name    : DJI.AVC
      encoder         : Lavc56.60.100 mjpeg
Stream mapping:
  Stream #0:0 -> #0:0 (h264 (native) -> mjpeg (native))
Press [q] to stop, [?] for help
frame=    1 fps=0.6 q=18.9 size=N/A time=00:00:00.02 bitrate=N/A    frame=    3 fps=1.3 q=23.2 size=N/A time=00:00:00.06 bitrate=N/A    frame=    5 fps=1.7 q=24.8 size=N/A time=00:00:00.10 bitrate=N/A    frame=    7 fps=1.9 q=24.8 size=N/A time=00:00:00.14 bitrate=N/A    frame=    9 fps=2.2 q=24.8 size=N/A time=00:00:00.18 bitrate=N/A    frame=   11 fps=2.3 q=24.8 size=N/A time=00:00:00.22 bitrate=N/A    frame=   13 fps=2.4 q=24.8 size=N/A time=00:00:00.26 bitrate=N/A    frame=   16 fps=2.6 q=24.8 size=N/A time=00:00:00.32 bitrate=N/A    frame=   18 fps=2.7 q=24.8 size=N/A time=00:00:00.36 bitrate=N/A    frame=   20 fps=2.7 q=24.8 size=N/A time=00:00:00.40 bitrate=N/A    frame=   23 fps=2.9 q=24.8 size=N/A time=00:00:00.46 bitrate=N/A    frame=   25 fps=3.0 q=24.8 size=N/A time=00:00:00.50 bitrate=N/A    frame=   27 fps=3.0 q=24.8 size=N/A time=00:00:00.54 bitrate=N/A    frame=   29 fps=3.0 q=24.8 size=N/A time=00:00:00.58 bitrate=N/A    frame=   31 fps=3.0 q=24.8 size=N/A time=00:00:00.62 bitrate=N/A    frame=   33 fps=3.0 q=24.8 size=N/A time=00:00:00.66 bitrate=N/A    frame=   35 fps=3.1 q=24.8 size=N/A time=00:00:00.70 bitrate=N/A    frame=   37 fps=3.1 q=24.8 size=N/A time=00:00:00.74 bitrate=N/A    frame=   40 fps=3.1 q=24.8 size=N/A time=00:00:00.80 bitrate=N/A    frame=   42 fps=3.2 q=24.8 size=N/A time=00:00:00.84 bitrate=N/A    frame=   44 fps=3.2 q=24.8 size=N/A time=00:00:00.88 bitrate=N/A    frame=   47 fps=3.2 q=24.8 size=N/A time=00:00:00.94 bitrate=N/A    frame=   49 fps=3.2 q=24.8 size=N/A time=00:00:00.98 bitrate=N/A    frame=   51 fps=3.2 q=24.8 size=N/A time=00:00:01.02 bitrate=N/A    frame=   54 fps=3.3 q=24.8 size=N/A time=00:00:01.08 bitrate=N/A    frame=   56 fps=3.3 q=24.8 size=N/A time=00:00:01.12 bitrate=N/A    frame=   58 fps=3.3 q=24.8 size=N/A time=00:00:01.16 bitrate=N/A    frame=   61 fps=3.3 q=24.8 size=N/A time=00:00:01.22 bitrate=N/A    frame=   63 fps=3.3 q=24.8 size=N/A time=00:00:01.26 bitrate=N/A    frame=   65 fps=3.3 q=24.8 size=N/A time=00:00:01.30 bitrate=N/A    frame=   69 fps=3.4 q=24.8 size=N/A time=00:00:01.38 bitrate=N/A    frame=   71 fps=3.4 q=24.8 size=N/A time=00:00:01.42 bitrate=N/A    frame=   73 fps=3.4 q=24.8 size=N/A time=00:00:01.46 bitrate=N/A    frame=   75 fps=3.4 q=24.8 size=N/A time=00:00:01.50 bitrate=N/A    frame=   78 fps=3.4 q=24.8 size=N/A time=00:00:01.56 bitrate=N/A    frame=   80 fps=3.4 q=24.8 size=N/A time=00:00:01.60 bitrate=N/A    frame=   82 fps=3.4 q=24.8 size=N/A time=00:00:01.64 bitrate=N/A    frame=   84 fps=3.4 q=24.8 size=N/A time=00:00:01.68 bitrate=N/A    frame=   86 fps=3.4 q=24.8 size=N/A time=00:00:01.72 bitrate=N/A    frame=   88 fps=3.4 q=24.8 size=N/A time=00:00:01.76 bitrate=N/A    frame=   90 fps=3.4 q=24.8 size=N/A time=00:00:01.80 bitrate=N/A    frame=   92 fps=3.4 q=24.8 size=N/A time=00:00:01.84 bitrate=N/A    frame=   94 fps=3.4 q=24.8 size=N/A time=00:00:01.88 bitrate=N/A    frame=   96 fps=3.4 q=24.8 size=N/A time=00:00:01.92 bitrate=N/A    frame=   98 fps=3.4 q=24.8 size=N/A time=00:00:01.96 bitrate=N/A    frame=  101 fps=3.4 q=24.8 size=N/A time=00:00:02.02 bitrate=N/A    frame=  104 fps=3.4 q=24.8 size=N/A time=00:00:02.08 bitrate=N/A    frame=  106 fps=3.4 q=24.8 size=N/A time=00:00:02.12 bitrate=N/A    frame=  108 fps=3.4 q=24.8 size=N/A time=00:00:02.16 bitrate=N/A    frame=  111 fps=3.4 q=24.8 size=N/A time=00:00:02.22 bitrate=N/A    frame=  113 fps=3.4 q=24.8 size=N/A time=00:00:02.26 bitrate=N/A    frame=  115 fps=3.4 q=24.8 size=N/A time=00:00:02.30 bitrate=N/A    frame=  117 fps=3.5 q=24.8 size=N/A time=00:00:02.34 bitrate=N/A    frame=  119 fps=3.4 q=24.8 size=N/A time=00:00:02.38 bitrate=N/A    frame=  123 fps=3.5 q=24.8 size=N/A time=00:00:02.46 bitrate=N/A    frame=  126 fps=3.5 q=24.8 size=N/A time=00:00:02.52 bitrate=N/A    frame=  128 fps=3.5 q=24.8 size=N/A time=00:00:02.56 bitrate=N/A    frame=  130 fps=3.5 q=24.8 size=N/A time=00:00:02.60 bitrate=N/A    frame=  133 fps=3.5 q=24.8 size=N/A time=00:00:02.66 bitrate=N/A    frame=  135 fps=3.5 q=24.8 size=N/A time=00:00:02.70 bitrate=N/A    frame=  137 fps=3.5 q=24.8 size=N/A time=00:00:02.74 bitrate=N/A    frame=  139 fps=3.5 q=24.8 size=N/A time=00:00:02.78 bitrate=N/A    frame=  141 fps=3.5 q=24.8 size=N/A time=00:00:02.82 bitrate=N/A    frame=  143 fps=3.5 q=24.8 size=N/A time=00:00:02.86 bitrate=N/A    frame=  145 fps=3.5 q=24.8 size=N/A time=00:00:02.90 bitrate=N/A    frame=  147 fps=3.5 q=24.8 size=N/A time=00:00:02.94 bitrate=N/A    frame=  149 fps=3.5 q=24.8 size=N/A time=00:00:02.98 bitrate=N/A    frame=  151 fps=3.5 q=24.8 size=N/A time=00:00:03.02 bitrate=N/A    frame=  153 fps=3.5 q=24.8 size=N/A time=00:00:03.06 bitrate=N/A    frame=  155 fps=3.5 q=24.8 size=N/A time=00:00:03.10 bitrate=N/A    frame=  157 fps=3.5 q=24.8 size=N/A time=00:00:03.14 bitrate=N/A    frame=  159 fps=3.4 q=24.8 size=N/A time=00:00:03.18 bitrate=N/A    frame=  161 fps=3.4 q=24.8 size=N/A time=00:00:03.22 bitrate=N/A    frame=  163 fps=3.4 q=24.8 size=N/A time=00:00:03.26 bitrate=N/A    frame=  165 fps=3.4 q=24.8 size=N/A time=00:00:03.30 bitrate=N/A    frame=  167 fps=3.4 q=24.8 size=N/A time=00:00:03.34 bitrate=N/A    frame=  170 fps=3.4 q=24.8 size=N/A time=00:00:03.40 bitrate=N/A    frame=  172 fps=3.4 q=24.8 size=N/A time=00:00:03.44 bitrate=N/A    frame=  175 fps=3.5 q=24.8 size=N/A time=00:00:03.50 bitrate=N/A    frame=  178 fps=3.5 q=24.8 size=N/A time=00:00:03.56 bitrate=N/A    frame=  180 fps=3.5 q=24.8 size=N/A time=00:00:03.60 bitrate=N/A    frame=  183 fps=3.5 q=24.8 size=N/A time=00:00:03.66 bitrate=N/A    frame=  186 fps=3.5 q=24.8 size=N/A time=00:00:03.72 bitrate=N/A    frame=  188 fps=3.5 q=24.8 size=N/A time=00:00:03.76 bitrate=N/A    frame=  190 fps=3.5 q=24.8 size=N/A time=00:00:03.80 bitrate=N/A    frame=  192 fps=3.5 q=24.8 size=N/A time=00:00:03.84 bitrate=N/A    frame=  194 fps=3.5 q=24.8 size=N/A time=00:00:03.88 bitrate=N/A    frame=  196 fps=3.5 q=24.8 size=N/A time=00:00:03.92 bitrate=N/A    frame=  198 fps=3.5 q=24.8 size=N/A time=00:00:03.96 bitrate=N/A    frame=  200 fps=3.5 q=24.8 size=N/A time=00:00:04.00 bitrate=N/A    frame=  202 fps=3.5 q=24.8 size=N/A time=00:00:04.04 bitrate=N/A    frame=  204 fps=3.5 q=24.8 size=N/A time=00:00:04.08 bitrate=N/A    frame=  206 fps=3.5 q=24.8 size=N/A time=00:00:04.12 bitrate=N/A    frame=  209 fps=3.5 q=24.8 size=N/A time=00:00:04.18 bitrate=N/A    frame=  211 fps=3.5 q=24.8 size=N/A time=00:00:04.22 bitrate=N/A    frame=  213 fps=3.5 q=24.8 size=N/A time=00:00:04.26 bitrate=N/A    frame=  216 fps=3.5 q=24.8 size=N/A time=00:00:04.32 bitrate=N/A    frame=  219 fps=3.5 q=24.8 size=N/A time=00:00:04.38 bitrate=N/A    frame=  221 fps=3.5 q=24.8 size=N/A time=00:00:04.42 bitrate=N/A    frame=  223 fps=3.5 q=24.8 size=N/A time=00:00:04.46 bitrate=N/A    frame=  225 fps=3.5 q=24.8 size=N/A time=00:00:04.50 bitrate=N/A    frame=  227 fps=3.5 q=24.8 size=N/A time=00:00:04.54 bitrate=N/A    frame=  230 fps=3.5 q=24.8 size=N/A time=00:00:04.60 bitrate=N/A    frame=  233 fps=3.5 q=24.8 size=N/A time=00:00:04.66 bitrate=N/A    frame=  235 fps=3.5 q=24.8 size=N/A time=00:00:04.70 bitrate=N/A    frame=  237 fps=3.5 q=24.8 size=N/A time=00:00:04.74 bitrate=N/A    frame=  239 fps=3.5 q=24.8 size=N/A time=00:00:04.78 bitrate=N/A    frame=  242 fps=3.5 q=24.8 size=N/A time=00:00:04.84 bitrate=N/A    frame=  245 fps=3.5 q=24.8 size=N/A time=00:00:04.90 bitrate=N/A    frame=  247 fps=3.5 q=24.8 size=N/A time=00:00:04.94 bitrate=N/A    frame=  250 fps=3.5 q=24.8 size=N/A time=00:00:05.00 bitrate=N/A    frame=  252 fps=3.5 q=24.8 size=N/A time=00:00:05.04 bitrate=N/A    frame=  254 fps=3.5 q=24.8 size=N/A time=00:00:05.08 bitrate=N/A    frame=  256 fps=3.5 q=24.8 size=N/A time=00:00:05.12 bitrate=N/A    frame=  258 fps=3.5 q=24.8 size=N/A time=00:00:05.16 bitrate=N/A    frame=  260 fps=3.5 q=24.8 size=N/A time=00:00:05.20 bitrate=N/A    frame=  262 fps=3.5 q=24.8 size=N/A time=00:00:05.24 bitrate=N/A    frame=  264 fps=3.5 q=24.8 size=N/A time=00:00:05.28 bitrate=N/A    frame=  267 fps=3.5 q=24.8 size=N/A time=00:00:05.34 bitrate=N/A    frame=  269 fps=3.5 q=24.8 size=N/A time=00:00:05.38 bitrate=N/A    frame=  271 fps=3.5 q=24.8 size=N/A time=00:00:05.42 bitrate=N/A    frame=  274 fps=3.5 q=24.8 size=N/A time=00:00:05.48 bitrate=N/A    frame=  276 fps=3.5 q=24.8 size=N/A time=00:00:05.52 bitrate=N/A    frame=  278 fps=3.5 q=24.8 size=N/A time=00:00:05.56 bitrate=N/A    frame=  280 fps=3.5 q=24.8 size=N/A time=00:00:05.60 bitrate=N/A    frame=  282 fps=3.5 q=24.8 size=N/A time=00:00:05.64 bitrate=N/A    frame=  284 fps=3.5 q=24.8 size=N/A time=00:00:05.68 bitrate=N/A    frame=  286 fps=3.5 q=24.8 size=N/A time=00:00:05.72 bitrate=N/A    frame=  289 fps=3.5 q=24.8 size=N/A time=00:00:05.78 bitrate=N/A    frame=  292 fps=3.5 q=24.8 size=N/A time=00:00:05.84 bitrate=N/A    frame=  294 fps=3.5 q=24.8 size=N/A time=00:00:05.88 bitrate=N/A    frame=  296 fps=3.5 q=24.8 size=N/A time=00:00:05.92 bitrate=N/A    frame=  298 fps=3.5 q=24.8 size=N/A time=00:00:05.96 bitrate=N/A    frame=  300 fps=3.5 q=24.8 size=N/A time=00:00:06.00 bitrate=N/A    frame=  303 fps=3.6 q=24.8 size=N/A time=00:00:06.06 bitrate=N/A    frame=  305 fps=3.6 q=24.8 size=N/A time=00:00:06.10 bitrate=N/A    frame=  308 fps=3.6 q=24.8 size=N/A time=00:00:06.16 bitrate=N/A    frame=  310 fps=3.6 q=24.8 size=N/A time=00:00:06.20 bitrate=N/A    frame=  313 fps=3.6 q=24.8 size=N/A time=00:00:06.26 bitrate=N/A    frame=  316 fps=3.6 q=24.8 size=N/A time=00:00:06.32 bitrate=N/A    frame=  318 fps=3.6 q=24.8 size=N/A time=00:00:06.36 bitrate=N/A    frame=  321 fps=3.6 q=24.8 size=N/A time=00:00:06.42 bitrate=N/A    frame=  323 fps=3.6 q=24.8 size=N/A time=00:00:06.46 bitrate=N/A    frame=  326 fps=3.6 q=24.8 size=N/A time=00:00:06.52 bitrate=N/A    frame=  329 fps=3.6 q=24.8 size=N/A time=00:00:06.58 bitrate=N/A    frame=  332 fps=3.6 q=24.8 size=N/A time=00:00:06.64 bitrate=N/A    frame=  334 fps=3.6 q=24.8 size=N/A time=00:00:06.68 bitrate=N/A    frame=  337 fps=3.6 q=24.8 size=N/A time=00:00:06.74 bitrate=N/A    frame=  339 fps=3.6 q=24.8 size=N/A time=00:00:06.78 bitrate=N/A    frame=  341 fps=3.6 q=24.8 size=N/A time=00:00:06.82 bitrate=N/A    frame=  344 fps=3.6 q=24.8 size=N/A time=00:00:06.88 bitrate=N/A    frame=  347 fps=3.6 q=24.8 size=N/A time=00:00:06.94 bitrate=N/A    frame=  349 fps=3.6 q=24.8 size=N/A time=00:00:06.98 bitrate=N/A    frame=  351 fps=3.6 q=24.8 size=N/A time=00:00:07.02 bitrate=N/A    frame=  353 fps=3.6 q=24.8 size=N/A time=00:00:07.06 bitrate=N/A    frame=  356 fps=3.6 q=24.8 size=N/A time=00:00:07.12 bitrate=N/A    frame=  358 fps=3.6 q=24.8 size=N/A time=00:00:07.16 bitrate=N/A    frame=  361 fps=3.6 q=24.8 size=N/A time=00:00:07.22 bitrate=N/A    frame=  364 fps=3.6 q=24.8 size=N/A time=00:00:07.28 bitrate=N/A    frame=  367 fps=3.6 q=24.8 size=N/A time=00:00:07.34 bitrate=N/A    frame=  370 fps=3.7 q=24.8 size=N/A time=00:00:07.40 bitrate=N/A    frame=  373 fps=3.7 q=24.8 size=N/A time=00:00:07.46 bitrate=N/A    frame=  376 fps=3.7 q=24.8 size=N/A time=00:00:07.52 bitrate=N/A    frame=  379 fps=3.7 q=24.8 size=N/A time=00:00:07.58 bitrate=N/A    frame=  381 fps=3.7 q=24.8 size=N/A time=00:00:07.62 bitrate=N/A    frame=  384 fps=3.7 q=24.8 size=N/A time=00:00:07.68 bitrate=N/A    frame=  387 fps=3.7 q=24.8 size=N/A time=00:00:07.74 bitrate=N/A    frame=  389 fps=3.7 q=24.8 size=N/A time=00:00:07.78 bitrate=N/A    frame=  391 fps=3.7 q=24.8 size=N/A time=00:00:07.82 bitrate=N/A    frame=  394 fps=3.7 q=24.8 size=N/A time=00:00:07.88 bitrate=N/A    frame=  396 fps=3.7 q=24.8 size=N/A time=00:00:07.92 bitrate=N/A    frame=  398 fps=3.7 q=24.8 size=N/A time=00:00:07.96 bitrate=N/A    frame=  401 fps=3.7 q=24.8 size=N/A time=00:00:08.02 bitrate=N/A    frame=  404 fps=3.7 q=24.8 size=N/A time=00:00:08.08 bitrate=N/A    frame=  407 fps=3.7 q=24.8 size=N/A time=00:00:08.14 bitrate=N/A    frame=  410 fps=3.7 q=24.8 size=N/A time=00:00:08.20 bitrate=N/A    frame=  412 fps=3.7 q=24.8 size=N/A time=00:00:08.24 bitrate=N/A    frame=  415 fps=3.7 q=24.8 size=N/A time=00:00:08.30 bitrate=N/A    frame=  419 fps=3.7 q=24.8 size=N/A time=00:00:08.38 bitrate=N/A    frame=  421 fps=3.7 q=24.8 size=N/A time=00:00:08.42 bitrate=N/A    frame=  423 fps=3.7 q=24.8 size=N/A time=00:00:08.46 bitrate=N/A    frame=  426 fps=3.7 q=24.8 size=N/A time=00:00:08.52 bitrate=N/A    frame=  428 fps=3.7 q=24.8 size=N/A time=00:00:08.56 bitrate=N/A    frame=  431 fps=3.7 q=24.8 size=N/A time=00:00:08.62 bitrate=N/A    frame=  433 fps=3.7 q=24.8 size=N/A time=00:00:08.66 bitrate=N/A    frame=  436 fps=3.7 q=24.8 size=N/A time=00:00:08.72 bitrate=N/A    frame=  438 fps=3.7 q=24.8 size=N/A time=00:00:08.76 bitrate=N/A    frame=  440 fps=3.7 q=24.8 size=N/A time=00:00:08.80 bitrate=N/A    frame=  443 fps=3.7 q=24.8 size=N/A time=00:00:08.86 bitrate=N/A    frame=  445 fps=3.7 q=24.8 size=N/A time=00:00:08.90 bitrate=N/A    frame=  448 fps=3.7 q=24.8 size=N/A time=00:00:08.96 bitrate=N/A    frame=  451 fps=3.7 q=24.8 size=N/A time=00:00:09.02 bitrate=N/A    frame=  454 fps=3.8 q=24.8 size=N/A time=00:00:09.08 bitrate=N/A    frame=  457 fps=3.8 q=24.8 size=N/A time=00:00:09.14 bitrate=N/A    frame=  459 fps=3.8 q=24.8 size=N/A time=00:00:09.18 bitrate=N/A    frame=  462 fps=3.8 q=24.8 size=N/A time=00:00:09.24 bitrate=N/A    frame=  465 fps=3.8 q=24.8 size=N/A time=00:00:09.30 bitrate=N/A    frame=  467 fps=3.8 q=24.8 size=N/A time=00:00:09.34 bitrate=N/A    frame=  470 fps=3.8 q=24.8 size=N/A time=00:00:09.40 bitrate=N/A    frame=  473 fps=3.8 q=24.8 size=N/A time=00:00:09.46 bitrate=N/A    frame=  476 fps=3.8 q=24.8 size=N/A time=00:00:09.52 bitrate=N/A    frame=  478 fps=3.8 q=24.8 size=N/A time=00:00:09.56 bitrate=N/A    frame=  481 fps=3.8 q=24.8 size=N/A time=00:00:09.62 bitrate=N/A    frame=  483 fps=3.8 q=24.8 size=N/A time=00:00:09.66 bitrate=N/A    frame=  485 fps=3.8 q=24.8 size=N/A time=00:00:09.70 bitrate=N/A    frame=  487 fps=3.8 q=24.8 size=N/A time=00:00:09.74 bitrate=N/A    frame=  489 fps=3.8 q=24.8 size=N/A time=00:00:09.78 bitrate=N/A    frame=  491 fps=3.8 q=24.8 size=N/A time=00:00:09.82 bitrate=N/A    frame=  494 fps=3.8 q=24.8 size=N/A time=00:00:09.88 bitrate=N/A    frame=  496 fps=3.8 q=24.8 size=N/A time=00:00:09.92 bitrate=N/A    frame=  498 fps=3.8 q=24.8 size=N/A time=00:00:09.96 bitrate=N/A    frame=  501 fps=3.8 q=24.8 size=N/A time=00:00:10.02 bitrate=N/A    frame=  503 fps=3.8 q=24.8 size=N/A time=00:00:10.06 bitrate=N/A    frame=  505 fps=3.8 q=24.8 size=N/A time=00:00:10.10 bitrate=N/A    frame=  508 fps=3.8 q=24.8 size=N/A time=00:00:10.16 bitrate=N/A    frame=  510 fps=3.8 q=24.8 size=N/A time=00:00:10.20 bitrate=N/A    frame=  512 fps=3.8 q=24.8 size=N/A time=00:00:10.24 bitrate=N/A    frame=  515 fps=3.8 q=24.8 size=N/A time=00:00:10.30 bitrate=N/A    frame=  517 fps=3.8 q=24.8 size=N/A time=00:00:10.34 bitrate=N/A    frame=  519 fps=3.8 q=24.8 size=N/A time=00:00:10.38 bitrate=N/A    frame=  521 fps=3.8 q=24.8 size=N/A time=00:00:10.42 bitrate=N/A    frame=  523 fps=3.8 q=24.8 size=N/A time=00:00:10.46 bitrate=N/A    frame=  526 fps=3.8 q=24.8 size=N/A time=00:00:10.52 bitrate=N/A    frame=  528 fps=3.8 q=24.8 size=N/A time=00:00:10.56 bitrate=N/A    frame=  530 fps=3.8 q=24.8 size=N/A time=00:00:10.60 bitrate=N/A    frame=  533 fps=3.8 q=24.8 size=N/A time=00:00:10.66 bitrate=N/A    frame=  535 fps=3.8 q=24.8 size=N/A time=00:00:10.70 bitrate=N/A    frame=  537 fps=3.8 q=24.8 size=N/A time=00:00:10.74 bitrate=N/A    frame=  539 fps=3.8 q=24.8 size=N/A time=00:00:10.78 bitrate=N/A    frame=  541 fps=3.8 q=24.8 size=N/A time=00:00:10.82 bitrate=N/A    frame=  545 fps=3.8 q=24.8 size=N/A time=00:00:10.90 bitrate=N/A    frame=  547 fps=3.8 q=24.8 size=N/A time=00:00:10.94 bitrate=N/A    frame=  550 fps=3.8 q=24.8 size=N/A time=00:00:11.00 bitrate=N/A    frame=  552 fps=3.8 q=24.8 size=N/A time=00:00:11.04 bitrate=N/A    frame=  554 fps=3.8 q=24.8 size=N/A time=00:00:11.08 bitrate=N/A    frame=  556 fps=3.8 q=24.8 size=N/A time=00:00:11.12 bitrate=N/A    frame=  559 fps=3.8 q=24.8 size=N/A time=00:00:11.18 bitrate=N/A    frame=  561 fps=3.8 q=24.8 size=N/A time=00:00:11.22 bitrate=N/A    frame=  563 fps=3.8 q=24.8 size=N/A time=00:00:11.26 bitrate=N/A    frame=  565 fps=3.8 q=24.8 size=N/A time=00:00:11.30 bitrate=N/A    frame=  567 fps=3.8 q=24.8 size=N/A time=00:00:11.34 bitrate=N/A    frame=  569 fps=3.8 q=24.8 size=N/A time=00:00:11.38 bitrate=N/A    frame=  571 fps=3.8 q=24.8 size=N/A time=00:00:11.42 bitrate=N/A    frame=  573 fps=3.8 q=24.8 size=N/A time=00:00:11.46 bitrate=N/A    frame=  575 fps=3.8 q=24.8 size=N/A time=00:00:11.50 bitrate=N/A    frame=  577 fps=3.8 q=24.8 size=N/A time=00:00:11.54 bitrate=N/A    frame=  579 fps=3.8 q=24.8 size=N/A time=00:00:11.58 bitrate=N/A    frame=  581 fps=3.8 q=24.8 size=N/A time=00:00:11.62 bitrate=N/A    frame=  583 fps=3.8 q=24.8 size=N/A time=00:00:11.66 bitrate=N/A    frame=  585 fps=3.8 q=24.8 size=N/A time=00:00:11.70 bitrate=N/A    frame=  587 fps=3.8 q=24.8 size=N/A time=00:00:11.74 bitrate=N/A    frame=  590 fps=3.8 q=24.8 size=N/A time=00:00:11.80 bitrate=N/A    frame=  592 fps=3.8 q=24.8 size=N/A time=00:00:11.84 bitrate=N/A    frame=  594 fps=3.8 q=24.8 size=N/A time=00:00:11.88 bitrate=N/A    frame=  597 fps=3.8 q=24.8 size=N/A time=00:00:11.94 bitrate=N/A    frame=  600 fps=3.8 q=24.8 size=N/A time=00:00:12.00 bitrate=N/A    frame=  603 fps=3.8 q=24.8 size=N/A time=00:00:12.06 bitrate=N/A    frame=  605 fps=3.8 q=24.8 size=N/A time=00:00:12.10 bitrate=N/A    frame=  607 fps=3.8 q=24.8 size=N/A time=00:00:12.14 bitrate=N/A    frame=  609 fps=3.8 q=24.8 size=N/A time=00:00:12.18 bitrate=N/A    frame=  612 fps=3.8 q=24.8 size=N/A time=00:00:12.24 bitrate=N/A    frame=  614 fps=3.8 q=24.8 size=N/A time=00:00:12.28 bitrate=N/A    frame=  616 fps=3.8 q=24.8 size=N/A time=00:00:12.32 bitrate=N/A    frame=  618 fps=3.8 q=24.8 size=N/A time=00:00:12.36 bitrate=N/A    frame=  620 fps=3.8 q=24.8 size=N/A time=00:00:12.40 bitrate=N/A    frame=  622 fps=3.8 q=24.8 size=N/A time=00:00:12.44 bitrate=N/A    frame=  624 fps=3.8 q=24.8 size=N/A time=00:00:12.48 bitrate=N/A    frame=  626 fps=3.8 q=24.8 size=N/A time=00:00:12.52 bitrate=N/A    frame=  629 fps=3.8 q=24.8 size=N/A time=00:00:12.58 bitrate=N/A    frame=  631 fps=3.8 q=24.8 size=N/A time=00:00:12.62 bitrate=N/A    frame=  633 fps=3.7 q=24.8 size=N/A time=00:00:12.66 bitrate=N/A    frame=  635 fps=3.7 q=24.8 size=N/A time=00:00:12.70 bitrate=N/A    frame=  637 fps=3.7 q=24.8 size=N/A time=00:00:12.74 bitrate=N/A    frame=  639 fps=3.7 q=24.8 size=N/A time=00:00:12.78 bitrate=N/A    frame=  642 fps=3.7 q=24.8 size=N/A time=00:00:12.84 bitrate=N/A    frame=  644 fps=3.7 q=24.8 size=N/A time=00:00:12.88 bitrate=N/A    frame=  646 fps=3.7 q=24.8 size=N/A time=00:00:12.92 bitrate=N/A    frame=  648 fps=3.7 q=24.8 size=N/A time=00:00:12.96 bitrate=N/A    frame=  650 fps=3.7 q=24.8 size=N/A time=00:00:13.00 bitrate=N/A    frame=  652 fps=3.7 q=24.8 size=N/A time=00:00:13.04 bitrate=N/A    frame=  654 fps=3.7 q=24.8 size=N/A time=00:00:13.08 bitrate=N/A    frame=  657 fps=3.7 q=24.8 size=N/A time=00:00:13.14 bitrate=N/A    frame=  659 fps=3.7 q=24.8 size=N/A time=00:00:13.18 bitrate=N/A    frame=  661 fps=3.7 q=24.8 size=N/A time=00:00:13.22 bitrate=N/A    frame=  663 fps=3.7 q=24.8 size=N/A time=00:00:13.26 bitrate=N/A    frame=  665 fps=3.7 q=24.8 size=N/A time=00:00:13.30 bitrate=N/A    frame=  667 fps=3.7 q=24.8 size=N/A time=00:00:13.34 bitrate=N/A    frame=  669 fps=3.7 q=24.8 size=N/A time=00:00:13.38 bitrate=N/A    frame=  672 fps=3.7 q=24.8 size=N/A time=00:00:13.44 bitrate=N/A    frame=  675 fps=3.7 q=24.8 size=N/A time=00:00:13.50 bitrate=N/A    frame=  677 fps=3.7 q=24.8 size=N/A time=00:00:13.54 bitrate=N/A    frame=  680 fps=3.7 q=24.8 size=N/A time=00:00:13.60 bitrate=N/A    frame=  682 fps=3.7 q=24.8 size=N/A time=00:00:13.64 bitrate=N/A    frame=  685 fps=3.7 q=24.8 size=N/A time=00:00:13.70 bitrate=N/A    frame=  688 fps=3.7 q=24.8 size=N/A time=00:00:13.76 bitrate=N/A    frame=  690 fps=3.7 q=24.8 size=N/A time=00:00:13.80 bitrate=N/A    frame=  692 fps=3.7 q=24.8 size=N/A time=00:00:13.84 bitrate=N/A    frame=  694 fps=3.7 q=24.8 size=N/A time=00:00:13.88 bitrate=N/A    frame=  696 fps=3.7 q=24.8 size=N/A time=00:00:13.92 bitrate=N/A    frame=  698 fps=3.7 q=24.8 size=N/A time=00:00:13.96 bitrate=N/A    frame=  701 fps=3.7 q=24.8 size=N/A time=00:00:14.02 bitrate=N/A    frame=  703 fps=3.7 q=24.8 size=N/A time=00:00:14.06 bitrate=N/A    frame=  706 fps=3.7 q=24.8 size=N/A time=00:00:14.12 bitrate=N/A    frame=  709 fps=3.7 q=24.8 size=N/A time=00:00:14.18 bitrate=N/A    frame=  711 fps=3.7 q=24.8 size=N/A time=00:00:14.22 bitrate=N/A    frame=  713 fps=3.7 q=24.8 size=N/A time=00:00:14.26 bitrate=N/A    frame=  715 fps=3.7 q=24.8 size=N/A time=00:00:14.30 bitrate=N/A    frame=  717 fps=3.7 q=24.8 size=N/A time=00:00:14.34 bitrate=N/A    frame=  719 fps=3.7 q=24.8 size=N/A time=00:00:14.38 bitrate=N/A    frame=  721 fps=3.7 q=24.8 size=N/A time=00:00:14.42 bitrate=N/A    frame=  723 fps=3.7 q=24.8 size=N/A time=00:00:14.46 bitrate=N/A    frame=  725 fps=3.7 q=24.8 size=N/A time=00:00:14.50 bitrate=N/A    frame=  728 fps=3.7 q=24.8 size=N/A time=00:00:14.56 bitrate=N/A    frame=  731 fps=3.7 q=24.8 size=N/A time=00:00:14.62 bitrate=N/A    frame=  733 fps=3.7 q=24.8 size=N/A time=00:00:14.66 bitrate=N/A    frame=  736 fps=3.7 q=24.8 size=N/A time=00:00:14.72 bitrate=N/A    frame=  738 fps=3.7 q=24.8 size=N/A time=00:00:14.76 bitrate=N/A    frame=  740 fps=3.7 q=24.8 size=N/A time=00:00:14.80 bitrate=N/A    frame=  743 fps=3.8 q=24.8 size=N/A time=00:00:14.86 bitrate=N/A    frame=  745 fps=3.7 q=24.8 size=N/A time=00:00:14.90 bitrate=N/A    frame=  747 fps=3.7 q=24.8 size=N/A time=00:00:14.94 bitrate=N/A    frame=  749 fps=3.7 q=24.8 size=N/A time=00:00:14.98 bitrate=N/A    frame=  752 fps=3.7 q=24.8 size=N/A time=00:00:15.04 bitrate=N/A    frame=  755 fps=3.8 q=24.8 size=N/A time=00:00:15.10 bitrate=N/A    frame=  757 fps=3.8 q=24.8 size=N/A time=00:00:15.14 bitrate=N/A    frame=  760 fps=3.7 q=24.8 size=N/A time=00:00:15.20 bitrate=N/A    frame=  762 fps=3.7 q=24.8 size=N/A time=00:00:15.24 bitrate=N/A    frame=  764 fps=3.7 q=24.8 size=N/A time=00:00:15.28 bitrate=N/A    frame=  766 fps=3.7 q=24.8 size=N/A time=00:00:15.32 bitrate=N/A    frame=  768 fps=3.7 q=24.8 size=N/A time=00:00:15.36 bitrate=N/A    frame=  771 fps=3.8 q=24.8 size=N/A time=00:00:15.42 bitrate=N/A    frame=  774 fps=3.8 q=24.8 size=N/A time=00:00:15.48 bitrate=N/A    frame=  776 fps=3.8 q=24.8 size=N/A time=00:00:15.52 bitrate=N/A    frame=  778 fps=3.8 q=24.8 size=N/A time=00:00:15.56 bitrate=N/A    frame=  780 fps=3.8 q=24.8 size=N/A time=00:00:15.60 bitrate=N/A    frame=  782 fps=3.8 q=24.8 size=N/A time=00:00:15.64 bitrate=N/A    frame=  784 fps=3.8 q=24.8 size=N/A time=00:00:15.68 bitrate=N/A    frame=  786 fps=3.8 q=24.8 size=N/A time=00:00:15.72 bitrate=N/A    frame=  789 fps=3.8 q=24.8 size=N/A time=00:00:15.78 bitrate=N/A    frame=  792 fps=3.8 q=24.8 size=N/A time=00:00:15.84 bitrate=N/A    frame=  794 fps=3.8 q=24.8 size=N/A time=00:00:15.88 bitrate=N/A    frame=  796 fps=3.8 q=24.8 size=N/A time=00:00:15.92 bitrate=N/A    frame=  798 fps=3.8 q=24.8 size=N/A time=00:00:15.96 bitrate=N/A    frame=  801 fps=3.8 q=24.8 size=N/A time=00:00:16.02 bitrate=N/A    frame=  803 fps=3.8 q=24.8 size=N/A time=00:00:16.06 bitrate=N/A    frame=  806 fps=3.8 q=24.8 size=N/A time=00:00:16.12 bitrate=N/A    frame=  808 fps=3.8 q=24.8 size=N/A time=00:00:16.16 bitrate=N/A    frame=  811 fps=3.8 q=24.8 size=N/A time=00:00:16.22 bitrate=N/A    frame=  813 fps=3.8 q=24.8 size=N/A time=00:00:16.26 bitrate=N/A    frame=  815 fps=3.8 q=24.8 size=N/A time=00:00:16.30 bitrate=N/A    frame=  818 fps=3.8 q=24.8 size=N/A time=00:00:16.36 bitrate=N/A    frame=  820 fps=3.8 q=24.8 size=N/A time=00:00:16.40 bitrate=N/A    frame=  823 fps=3.8 q=24.8 size=N/A time=00:00:16.46 bitrate=N/A    frame=  825 fps=3.8 q=24.8 size=N/A time=00:00:16.50 bitrate=N/A    frame=  827 fps=3.8 q=24.8 size=N/A time=00:00:16.54 bitrate=N/A    frame=  829 fps=3.8 q=24.8 size=N/A time=00:00:16.58 bitrate=N/A    frame=  831 fps=3.8 q=24.8 size=N/A time=00:00:16.62 bitrate=N/A    frame=  834 fps=3.8 q=24.8 size=N/A time=00:00:16.68 bitrate=N/A    frame=  837 fps=3.8 q=24.8 size=N/A time=00:00:16.74 bitrate=N/A    frame=  840 fps=3.8 q=24.8 size=N/A time=00:00:16.80 bitrate=N/A    frame=  843 fps=3.8 q=24.8 size=N/A time=00:00:16.86 bitrate=N/A    frame=  845 fps=3.8 q=24.8 size=N/A time=00:00:16.90 bitrate=N/A    frame=  848 fps=3.8 q=24.8 size=N/A time=00:00:16.96 bitrate=N/A    frame=  851 fps=3.8 q=24.8 size=N/A time=00:00:17.02 bitrate=N/A    frame=  853 fps=3.8 q=24.8 size=N/A time=00:00:17.06 bitrate=N/A    frame=  855 fps=3.8 q=24.8 size=N/A time=00:00:17.10 bitrate=N/A    frame=  857 fps=3.8 q=24.8 size=N/A time=00:00:17.14 bitrate=N/A    frame=  859 fps=3.8 q=24.8 size=N/A time=00:00:17.18 bitrate=N/A    frame=  861 fps=3.8 q=24.8 size=N/A time=00:00:17.22 bitrate=N/A    frame=  863 fps=3.8 q=24.8 size=N/A time=00:00:17.26 bitrate=N/A    frame=  865 fps=3.8 q=24.8 size=N/A time=00:00:17.30 bitrate=N/A    frame=  867 fps=3.8 q=24.8 size=N/A time=00:00:17.34 bitrate=N/A    frame=  869 fps=3.8 q=24.8 size=N/A time=00:00:17.38 bitrate=N/A    frame=  872 fps=3.8 q=24.8 size=N/A time=00:00:17.44 bitrate=N/A    frame=  874 fps=3.8 q=24.8 size=N/A time=00:00:17.48 bitrate=N/A    frame=  877 fps=3.8 q=24.8 size=N/A time=00:00:17.54 bitrate=N/A    frame=  880 fps=3.8 q=24.8 size=N/A time=00:00:17.60 bitrate=N/A    frame=  883 fps=3.8 q=24.8 size=N/A time=00:00:17.66 bitrate=N/A    frame=  886 fps=3.8 q=24.8 size=N/A time=00:00:17.72 bitrate=N/A    frame=  890 fps=3.8 q=24.8 size=N/A time=00:00:17.80 bitrate=N/A    frame=  892 fps=3.8 q=24.8 size=N/A time=00:00:17.84 bitrate=N/A    frame=  895 fps=3.8 q=24.8 size=N/A time=00:00:17.90 bitrate=N/A    frame=  898 fps=3.8 q=24.8 size=N/A time=00:00:17.96 bitrate=N/A    frame=  901 fps=3.8 q=24.8 size=N/A time=00:00:18.02 bitrate=N/A    frame=  904 fps=3.8 q=24.8 size=N/A time=00:00:18.08 bitrate=N/A    frame=  906 fps=3.8 q=24.8 size=N/A time=00:00:18.12 bitrate=N/A    frame=  908 fps=3.8 q=24.8 size=N/A time=00:00:18.16 bitrate=N/A    frame=  911 fps=3.8 q=24.8 size=N/A time=00:00:18.22 bitrate=N/A    frame=  914 fps=3.8 q=24.8 size=N/A time=00:00:18.28 bitrate=N/A    frame=  917 fps=3.8 q=24.8 size=N/A time=00:00:18.34 bitrate=N/A    frame=  920 fps=3.8 q=24.8 size=N/A time=00:00:18.40 bitrate=N/A    frame=  922 fps=3.8 q=24.8 size=N/A time=00:00:18.44 bitrate=N/A    frame=  925 fps=3.8 q=24.8 size=N/A time=00:00:18.50 bitrate=N/A    frame=  927 fps=3.8 q=24.8 size=N/A time=00:00:18.54 bitrate=N/A    frame=  930 fps=3.8 q=24.8 size=N/A time=00:00:18.60 bitrate=N/A    frame=  933 fps=3.8 q=24.8 size=N/A time=00:00:18.66 bitrate=N/A    frame=  936 fps=3.8 q=24.8 size=N/A time=00:00:18.72 bitrate=N/A    frame=  938 fps=3.8 q=24.8 size=N/A time=00:00:18.76 bitrate=N/A    frame=  941 fps=3.8 q=24.8 size=N/A time=00:00:18.82 bitrate=N/A    frame=  943 fps=3.8 q=24.8 size=N/A time=00:00:18.86 bitrate=N/A    frame=  945 fps=3.8 q=24.8 size=N/A time=00:00:18.90 bitrate=N/A    frame=  947 fps=3.8 q=24.8 size=N/A time=00:00:18.94 bitrate=N/A    frame=  949 fps=3.8 q=24.8 size=N/A time=00:00:18.98 bitrate=N/A    frame=  951 fps=3.8 q=24.8 size=N/A time=00:00:19.02 bitrate=N/A    frame=  954 fps=3.8 q=24.8 size=N/A time=00:00:19.08 bitrate=N/A    frame=  956 fps=3.8 q=24.8 size=N/A time=00:00:19.12 bitrate=N/A    frame=  958 fps=3.8 q=24.8 size=N/A time=00:00:19.16 bitrate=N/A    frame=  960 fps=3.8 q=24.8 size=N/A time=00:00:19.20 bitrate=N/A    frame=  962 fps=3.8 q=24.8 size=N/A time=00:00:19.24 bitrate=N/A    frame=  965 fps=3.8 q=24.8 size=N/A time=00:00:19.30 bitrate=N/A    frame=  967 fps=3.8 q=24.8 size=N/A time=00:00:19.34 bitrate=N/A    frame=  969 fps=3.8 q=24.8 size=N/A time=00:00:19.38 bitrate=N/A    frame=  971 fps=3.8 q=24.8 size=N/A time=00:00:19.42 bitrate=N/A    frame=  973 fps=3.8 q=24.8 size=N/A time=00:00:19.46 bitrate=N/A    frame=  976 fps=3.8 q=24.8 size=N/A time=00:00:19.52 bitrate=N/A    frame=  978 fps=3.8 q=24.8 size=N/A time=00:00:19.56 bitrate=N/A    frame=  981 fps=3.8 q=24.8 size=N/A time=00:00:19.62 bitrate=N/A    frame=  984 fps=3.8 q=24.8 size=N/A time=00:00:19.68 bitrate=N/A    frame=  986 fps=3.8 q=24.8 size=N/A time=00:00:19.72 bitrate=N/A    frame=  988 fps=3.8 q=24.8 size=N/A time=00:00:19.76 bitrate=N/A    frame=  991 fps=3.8 q=24.8 size=N/A time=00:00:19.82 bitrate=N/A    frame=  993 fps=3.8 q=24.8 size=N/A time=00:00:19.86 bitrate=N/A    frame=  995 fps=3.8 q=24.8 size=N/A time=00:00:19.90 bitrate=N/A    frame=  997 fps=3.8 q=24.8 size=N/A time=00:00:19.94 bitrate=N/A    frame=  999 fps=3.8 q=24.8 size=N/A time=00:00:19.98 bitrate=N/A    frame= 1002 fps=3.8 q=24.8 size=N/A time=00:00:20.04 bitrate=N/A    frame= 1005 fps=3.8 q=24.8 size=N/A time=00:00:20.10 bitrate=N/A    frame= 1008 fps=3.8 q=24.8 size=N/A time=00:00:20.16 bitrate=N/A    frame= 1010 fps=3.8 q=24.8 size=N/A time=00:00:20.20 bitrate=N/A    frame= 1013 fps=3.8 q=24.8 size=N/A time=00:00:20.26 bitrate=N/A    frame= 1016 fps=3.8 q=24.8 size=N/A time=00:00:20.32 bitrate=N/A    frame= 1018 fps=3.8 q=24.8 size=N/A time=00:00:20.36 bitrate=N/A    frame= 1020 fps=3.8 q=24.8 size=N/A time=00:00:20.40 bitrate=N/A    frame= 1023 fps=3.8 q=24.8 size=N/A time=00:00:20.46 bitrate=N/A    frame= 1026 fps=3.8 q=24.8 size=N/A time=00:00:20.52 bitrate=N/A    frame= 1028 fps=3.8 q=24.8 size=N/A time=00:00:20.56 bitrate=N/A    frame= 1031 fps=3.8 q=24.8 size=N/A time=00:00:20.62 bitrate=N/A    frame= 1034 fps=3.8 q=24.8 size=N/A time=00:00:20.68 bitrate=N/A    frame= 1036 fps=3.8 q=24.8 size=N/A time=00:00:20.72 bitrate=N/A    frame= 1039 fps=3.8 q=24.8 size=N/A time=00:00:20.78 bitrate=N/A    frame= 1041 fps=3.8 q=24.8 size=N/A time=00:00:20.82 bitrate=N/A    frame= 1043 fps=3.8 q=24.8 size=N/A time=00:00:20.86 bitrate=N/A    frame= 1046 fps=3.8 q=24.8 size=N/A time=00:00:20.92 bitrate=N/A    frame= 1048 fps=3.8 q=24.8 size=N/A time=00:00:20.96 bitrate=N/A    frame= 1050 fps=3.8 q=24.8 size=N/A time=00:00:21.00 bitrate=N/A    frame= 1052 fps=3.8 q=24.8 size=N/A time=00:00:21.04 bitrate=N/A    frame= 1054 fps=3.8 q=24.8 size=N/A time=00:00:21.08 bitrate=N/A    frame= 1056 fps=3.8 q=24.8 size=N/A time=00:00:21.12 bitrate=N/A    frame= 1058 fps=3.8 q=24.8 size=N/A time=00:00:21.16 bitrate=N/A    frame= 1060 fps=3.8 q=24.8 size=N/A time=00:00:21.20 bitrate=N/A    frame= 1062 fps=3.8 q=24.8 size=N/A time=00:00:21.24 bitrate=N/A    frame= 1066 fps=3.8 q=24.8 size=N/A time=00:00:21.32 bitrate=N/A    frame= 1069 fps=3.8 q=24.8 size=N/A time=00:00:21.38 bitrate=N/A    frame= 1072 fps=3.8 q=24.8 size=N/A time=00:00:21.44 bitrate=N/A    frame= 1075 fps=3.8 q=24.8 size=N/A time=00:00:21.50 bitrate=N/A    frame= 1078 fps=3.8 q=24.8 size=N/A time=00:00:21.56 bitrate=N/A    frame= 1080 fps=3.8 q=24.8 size=N/A time=00:00:21.60 bitrate=N/A    frame= 1083 fps=3.8 q=24.8 size=N/A time=00:00:21.66 bitrate=N/A    frame= 1086 fps=3.8 q=24.8 size=N/A time=00:00:21.72 bitrate=N/A    frame= 1088 fps=3.8 q=24.8 size=N/A time=00:00:21.76 bitrate=N/A    frame= 1091 fps=3.8 q=24.8 size=N/A time=00:00:21.82 bitrate=N/A    frame= 1094 fps=3.8 q=24.8 size=N/A time=00:00:21.88 bitrate=N/A    frame= 1097 fps=3.8 q=24.8 size=N/A time=00:00:21.94 bitrate=N/A    frame= 1100 fps=3.8 q=24.8 size=N/A time=00:00:22.00 bitrate=N/A    frame= 1103 fps=3.8 q=24.8 size=N/A time=00:00:22.06 bitrate=N/A    frame= 1106 fps=3.8 q=24.8 size=N/A time=00:00:22.12 bitrate=N/A    frame= 1108 fps=3.8 q=24.8 size=N/A time=00:00:22.16 bitrate=N/A    frame= 1110 fps=3.8 q=24.8 size=N/A time=00:00:22.20 bitrate=N/A    frame= 1112 fps=3.8 q=24.8 size=N/A time=00:00:22.24 bitrate=N/A    frame= 1115 fps=3.8 q=24.8 size=N/A time=00:00:22.30 bitrate=N/A    frame= 1117 fps=3.8 q=24.8 size=N/A time=00:00:22.34 bitrate=N/A    frame= 1119 fps=3.8 q=24.8 size=N/A time=00:00:22.38 bitrate=N/A    frame= 1121 fps=3.8 q=24.8 size=N/A time=00:00:22.42 bitrate=N/A    frame= 1124 fps=3.8 q=24.8 size=N/A time=00:00:22.48 bitrate=N/A    frame= 1127 fps=3.8 q=24.8 size=N/A time=00:00:22.54 bitrate=N/A    frame= 1130 fps=3.8 q=24.8 size=N/A time=00:00:22.60 bitrate=N/A    frame= 1132 fps=3.8 q=24.8 size=N/A time=00:00:22.64 bitrate=N/A    frame= 1135 fps=3.8 q=24.8 size=N/A time=00:00:22.70 bitrate=N/A    frame= 1137 fps=3.8 q=24.8 size=N/A time=00:00:22.74 bitrate=N/A    frame= 1139 fps=3.8 q=24.8 size=N/A time=00:00:22.78 bitrate=N/A    frame= 1142 fps=3.8 q=24.8 size=N/A time=00:00:22.84 bitrate=N/A    frame= 1144 fps=3.8 q=24.8 size=N/A time=00:00:22.88 bitrate=N/A    frame= 1146 fps=3.8 q=24.8 size=N/A time=00:00:22.92 bitrate=N/A    frame= 1148 fps=3.8 q=24.8 size=N/A time=00:00:22.96 bitrate=N/A    frame= 1150 fps=3.8 q=24.8 size=N/A time=00:00:23.00 bitrate=N/A    frame= 1153 fps=3.8 q=24.8 size=N/A time=00:00:23.06 bitrate=N/A    frame= 1156 fps=3.8 q=24.8 size=N/A time=00:00:23.12 bitrate=N/A    frame= 1159 fps=3.8 q=24.8 size=N/A time=00:00:23.18 bitrate=N/A    frame= 1161 fps=3.8 q=24.8 size=N/A time=00:00:23.22 bitrate=N/A    frame= 1163 fps=3.8 q=24.8 size=N/A time=00:00:23.26 bitrate=N/A    frame= 1165 fps=3.8 q=24.8 size=N/A time=00:00:23.30 bitrate=N/A    frame= 1167 fps=3.8 q=24.8 size=N/A time=00:00:23.34 bitrate=N/A    frame= 1169 fps=3.8 q=24.8 size=N/A time=00:00:23.38 bitrate=N/A    frame= 1171 fps=3.8 q=24.8 size=N/A time=00:00:23.42 bitrate=N/A    frame= 1174 fps=3.8 q=24.8 size=N/A time=00:00:23.48 bitrate=N/A    frame= 1177 fps=3.8 q=24.8 size=N/A time=00:00:23.54 bitrate=N/A    frame= 1179 fps=3.8 q=24.8 size=N/A time=00:00:23.58 bitrate=N/A    frame= 1181 fps=3.8 q=24.8 size=N/A time=00:00:23.62 bitrate=N/A    frame= 1184 fps=3.8 q=24.8 size=N/A time=00:00:23.68 bitrate=N/A    frame= 1186 fps=3.8 q=24.8 size=N/A time=00:00:23.72 bitrate=N/A    frame= 1188 fps=3.8 q=24.8 size=N/A time=00:00:23.76 bitrate=N/A    frame= 1190 fps=3.8 q=24.8 size=N/A time=00:00:23.80 bitrate=N/A    frame= 1192 fps=3.8 q=24.8 size=N/A time=00:00:23.84 bitrate=N/A    frame= 1195 fps=3.8 q=24.8 size=N/A time=00:00:23.90 bitrate=N/A    frame= 1197 fps=3.8 q=24.8 size=N/A time=00:00:23.94 bitrate=N/A    frame= 1199 fps=3.8 q=24.8 size=N/A time=00:00:23.98 bitrate=N/A    frame= 1202 fps=3.8 q=24.8 size=N/A time=00:00:24.04 bitrate=N/A    frame= 1204 fps=3.8 q=24.8 size=N/A time=00:00:24.08 bitrate=N/A    frame= 1207 fps=3.8 q=24.8 size=N/A time=00:00:24.14 bitrate=N/A    frame= 1210 fps=3.8 q=24.8 size=N/A time=00:00:24.20 bitrate=N/A    frame= 1213 fps=3.8 q=24.8 size=N/A time=00:00:24.26 bitrate=N/A    frame= 1216 fps=3.8 q=24.8 size=N/A time=00:00:24.32 bitrate=N/A    frame= 1219 fps=3.8 q=24.8 size=N/A time=00:00:24.38 bitrate=N/A    frame= 1221 fps=3.8 q=24.8 size=N/A time=00:00:24.42 bitrate=N/A    frame= 1223 fps=3.8 q=24.8 size=N/A time=00:00:24.46 bitrate=N/A    frame= 1225 fps=3.8 q=24.8 size=N/A time=00:00:24.50 bitrate=N/A    frame= 1227 fps=3.8 q=24.8 size=N/A time=00:00:24.54 bitrate=N/A    frame= 1229 fps=3.8 q=24.8 size=N/A time=00:00:24.58 bitrate=N/A    frame= 1231 fps=3.8 q=24.8 size=N/A time=00:00:24.62 bitrate=N/A    frame= 1233 fps=3.8 q=24.8 size=N/A time=00:00:24.66 bitrate=N/A    frame= 1236 fps=3.8 q=24.8 size=N/A time=00:00:24.72 bitrate=N/A    frame= 1238 fps=3.8 q=24.8 size=N/A time=00:00:24.76 bitrate=N/A    frame= 1241 fps=3.8 q=24.8 size=N/A time=00:00:24.82 bitrate=N/A    frame= 1243 fps=3.8 q=24.8 size=N/A time=00:00:24.86 bitrate=N/A    frame= 1246 fps=3.8 q=24.8 size=N/A time=00:00:24.92 bitrate=N/A    frame= 1248 fps=3.8 q=24.8 size=N/A time=00:00:24.96 bitrate=N/A    frame= 1251 fps=3.8 q=24.8 size=N/A time=00:00:25.02 bitrate=N/A    frame= 1253 fps=3.8 q=24.8 size=N/A time=00:00:25.06 bitrate=N/A    frame= 1256 fps=3.8 q=24.8 size=N/A time=00:00:25.12 bitrate=N/A    frame= 1258 fps=3.8 q=24.8 size=N/A time=00:00:25.16 bitrate=N/A    frame= 1260 fps=3.8 q=24.8 size=N/A time=00:00:25.20 bitrate=N/A    frame= 1262 fps=3.8 q=24.8 size=N/A time=00:00:25.24 bitrate=N/A    frame= 1264 fps=3.8 q=24.8 size=N/A time=00:00:25.28 bitrate=N/A    frame= 1266 fps=3.8 q=24.8 size=N/A time=00:00:25.32 bitrate=N/A    frame= 1268 fps=3.8 q=24.8 size=N/A time=00:00:25.36 bitrate=N/A    frame= 1271 fps=3.8 q=24.8 size=N/A time=00:00:25.42 bitrate=N/A    frame= 1274 fps=3.8 q=24.8 size=N/A time=00:00:25.48 bitrate=N/A    frame= 1277 fps=3.8 q=24.8 size=N/A time=00:00:25.54 bitrate=N/A    frame= 1280 fps=3.8 q=24.8 size=N/A time=00:00:25.60 bitrate=N/A    frame= 1282 fps=3.8 q=24.8 size=N/A time=00:00:25.64 bitrate=N/A    frame= 1284 fps=3.8 q=24.8 size=N/A time=00:00:25.68 bitrate=N/A    frame= 1286 fps=3.8 q=24.8 size=N/A time=00:00:25.72 bitrate=N/A    frame= 1288 fps=3.8 q=24.8 size=N/A time=00:00:25.76 bitrate=N/A    frame= 1291 fps=3.8 q=24.8 size=N/A time=00:00:25.82 bitrate=N/A    frame= 1293 fps=3.8 q=24.8 size=N/A time=00:00:25.86 bitrate=N/A    frame= 1295 fps=3.8 q=24.8 size=N/A time=00:00:25.90 bitrate=N/A    frame= 1297 fps=3.8 q=24.8 size=N/A time=00:00:25.94 bitrate=N/A    frame= 1299 fps=3.8 q=24.8 size=N/A time=00:00:25.98 bitrate=N/A    frame= 1301 fps=3.8 q=24.8 size=N/A time=00:00:26.02 bitrate=N/A    frame= 1304 fps=3.8 q=24.8 size=N/A time=00:00:26.08 bitrate=N/A    frame= 1306 fps=3.8 q=24.8 size=N/A time=00:00:26.12 bitrate=N/A    frame= 1309 fps=3.8 q=24.8 size=N/A time=00:00:26.18 bitrate=N/A    frame= 1312 fps=3.8 q=24.8 size=N/A time=00:00:26.24 bitrate=N/A    frame= 1315 fps=3.8 q=24.8 size=N/A time=00:00:26.30 bitrate=N/A    frame= 1317 fps=3.8 q=24.8 size=N/A time=00:00:26.34 bitrate=N/A    frame= 1319 fps=3.8 q=24.8 size=N/A time=00:00:26.38 bitrate=N/A    frame= 1321 fps=3.8 q=24.8 size=N/A time=00:00:26.42 bitrate=N/A    frame= 1323 fps=3.8 q=24.8 size=N/A time=00:00:26.46 bitrate=N/A    frame= 1325 fps=3.8 q=24.8 size=N/A time=00:00:26.50 bitrate=N/A    frame= 1327 fps=3.8 q=24.8 size=N/A time=00:00:26.54 bitrate=N/A    frame= 1331 fps=3.8 q=24.8 size=N/A time=00:00:26.62 bitrate=N/A    frame= 1333 fps=3.8 q=24.8 size=N/A time=00:00:26.66 bitrate=N/A    frame= 1335 fps=3.8 q=24.8 size=N/A time=00:00:26.70 bitrate=N/A    frame= 1337 fps=3.8 q=24.8 size=N/A time=00:00:26.74 bitrate=N/A    frame= 1340 fps=3.8 q=24.8 size=N/A time=00:00:26.80 bitrate=N/A    frame= 1343 fps=3.8 q=24.8 size=N/A time=00:00:26.86 bitrate=N/A    frame= 1346 fps=3.8 q=24.8 size=N/A time=00:00:26.92 bitrate=N/A    frame= 1347 fps=3.8 q=24.8 Lsize=N/A time=00:00:26.94 bitrate=N/A    
video:1131976kB audio:0kB subtitle:0kB other streams:0kB global headers:0kB muxing overhead: unknown
+ turkic load DJI_0048_5m_to_30m_nagyon_jo_homokmegy_20180603_napos_napraforgo_T3 /home/horvathandras/vatic/vatic/videos/DJI_0048_5m_to_30m_nagyon_jo_homokmegy_20180603_napos_napraforgo_T3 $'Pozit\303\255vROI' $'Negat\303\255vROI' $'T\303\272r\303\241s' '~Friss' '~1-2Hetes' '~Régebbi' '~Egyéb1' '~Egyéb2' '~Egyéb3' $'R\303\241g\303\241s' '~Friss' '~1-2Hetes' '~Régebbi' '~Egyéb1' '~Egyéb2' '~Egyéb3' $'T\303\266r\303\251s' '~Friss' '~1-2Hetes' '~Régebbi' '~Egyéb1' '~Egyéb2' '~Egyéb3' $'Tapos\303\241s' '~Friss' '~1-2Hetes' '~Régebbi' '~Egyéb1' '~Egyéb2' '~Egyéb3' $'Eg\303\251szs\303\251gesN\303\266v\303\251ny' $'Egy\303\251b1' $'Egy\303\251b2' $'Egy\303\251b3' $'Egy\303\251b4' $'Egy\303\251b5' Bizonytalan $'M\305\261vel\305\221\303\272t' $'Gktapos\303\241s' $'Vet\305\221hiba' $'Sz\303\251ld\303\266nt\303\251s' $'J\303\251gk\303\241r' $'Belv\303\255z' $'Asz\303\241ly' $'Er\303\263zi\303\263' $'Egyszik\305\261Gyom' $'K\303\251tszik\305\261Gyom' $'Egy\303\251bN\303\266vv\303\251delmiPR' --offline --title '$filenameNoDot Video' --length 1000 --description 'vatic annotation'
+ turkic publish --offline
+ mkdir /home/horvathandras/vatic/vatic/public/videothumbnails/DJI_0048_5m_to_30m_nagyon_jo_homokmegy_20180603_napos_napraforgo_T3
+ cp /home/horvathandras/vatic/vatic/videos/DJI_0048_5m_to_30m_nagyon_jo_homokmegy_20180603_napos_napraforgo_T3/0/0/31.jpg /home/horvathandras/vatic/vatic/public/videothumbnails/DJI_0048_5m_to_30m_nagyon_jo_homokmegy_20180603_napos_napraforgo_T3/thumb.jpg
